# xmcd
#
# Track frame offsets:
#	150
#	16650
#	31884
#	46978
#	65099
#	80210
#	94763
#	109423
#	125549
#	141674
#	157075
#	173659
#	186565
#	204449
#	219049
#	234225
#
# Disc length: 3340 seconds
#
# Revision: 0
# Processed by: cddbd v1.4PL0 Copyright (c) Steve Scherf et al.
# Submitted via: dBpowerAMP V4.0
#
DISCID=e30d0a10
DTITLE=Jim Hendricks - Appalachian Hymns
DYEAR=1900
DGENRE=Christian
TTITLE0=Old Time Religion
TTITLE1=Blessed Assurance
TTITLE2=Just Over In The Glory Land
TTITLE3='Tis So Sweet To Trust In Jesus
TTITLE4=How Marvelous, How Wonderful
TTITLE5=Let The Lower Lights Be Burning
TTITLE6=Stand Up, Stand Up For Jesus
TTITLE7=Softly and Tenderly
TTITLE8=Count Your Blessings
TTITLE9=I Am Thine O Lord
TTITLE10=There Is A Fountain
TTITLE11=Standing On The Promises
TTITLE12=Have Thine Own Way Lord
TTITLE13=Nothing But The Blood Of Jesus
TTITLE14=Rock Of Ages
TTITLE15=A New Name Written Down In Glory
EXTD=
EXTT0=
EXTT1=
EXTT2=
EXTT3=
EXTT4=
EXTT5=
EXTT6=
EXTT7=
EXTT8=
EXTT9=
EXTT10=
EXTT11=
EXTT12=
EXTT13=
EXTT14=
EXTT15=
PLAYORDER=
